<?xml version="1.0" encoding="UTF-8"?>
<svg xmlns="http://www.w3.org/2000/svg" width="377" height="81">
   <defs>
      <style type="text/css">
    @namespace "http://www.w3.org/2000/svg";
    .line                 {fill: none; stroke: #262626; stroke-width: 1;}
    .bold-line            {stroke: #0A0A0A; shape-rendering: crispEdges; stroke-width: 2;}
    .thin-line            {stroke: #0F0F0F; shape-rendering: crispEdges}
    .filled               {fill: #262626; stroke: none;}
    text.terminal         {font-family: Verdana, Sans-serif;
                            font-size: 12px;
                            fill: #0A0A0A;
                            font-weight: bold;
                          }
    text.nonterminal      {font-family: Verdana, Sans-serif;
                            font-size: 12px;
                            fill: #0D0D0D;
                            font-weight: normal;
                          }
    text.regexp           {font-family: Verdana, Sans-serif;
                            font-size: 12px;
                            fill: #0F0F0F;
                            font-weight: normal;
                          }
    rect, circle, polygon {fill: #262626; stroke: #262626;}
    rect.terminal         {fill: #ffffff; stroke: #262626; stroke-width: 1;}
    rect.nonterminal      {fill: #FFFFFF; stroke: #262626; stroke-width: 1;}
    rect.text             {fill: none; stroke: none;}
    polygon.regexp        {fill: #FFFFFF; stroke: #262626; stroke-width: 1;}
  </style>
   </defs>
   <polygon points="9 17 1 13 1 21"/>
   <polygon points="17 17 9 13 9 21"/>
   <a xmlns:xlink="http://www.w3.org/1999/xlink"
      xlink:href="#SetSpecifier"
      xlink:title="SetSpecifier">
      <rect x="31" y="3" width="94" height="32"/>
      <rect x="29" y="1" width="94" height="32" class="nonterminal"/>
      <text class="nonterminal" x="39" y="21">SetSpecifier</text>
   </a>
   <rect x="145" y="3" width="34" height="32" rx="10"/>
   <rect x="143"
         y="1"
         width="34"
         height="32"
         class="terminal"
         rx="10"/>
   <text class="terminal" x="153" y="21">:=</text>
   <a xmlns:xlink="http://www.w3.org/1999/xlink"
      xlink:href="#SetNotation"
      xlink:title="SetNotation">
      <rect x="219" y="3" width="94" height="32"/>
      <rect x="217" y="1" width="94" height="32" class="nonterminal"/>
      <text class="nonterminal" x="227" y="21">SetNotation</text>
   </a>
   <a xmlns:xlink="http://www.w3.org/1999/xlink"
      xlink:href="#SetExpression"
      xlink:title="SetExpression">
      <rect x="219" y="47" width="110" height="32"/>
      <rect x="217" y="45" width="110" height="32" class="nonterminal"/>
      <text class="nonterminal" x="227" y="65">SetExpression</text>
   </a>
   <path class="line"
         d="m17 17 h2 m0 0 h10 m94 0 h10 m0 0 h10 m34 0 h10 m20 0 h10 m94 0 h10 m0 0 h16 m-150 0 h20 m130 0 h20 m-170 0 q10 0 10 10 m150 0 q0 -10 10 -10 m-160 10 v24 m150 0 v-24 m-150 24 q0 10 10 10 m130 0 q10 0 10 -10 m-140 10 h10 m110 0 h10 m23 -44 h-3"/>
   <polygon points="367 17 375 13 375 21"/>
   <polygon points="367 17 359 13 359 21"/>
</svg>
