<?xml version="1.0" encoding="UTF-8"?>
<svg xmlns="http://www.w3.org/2000/svg" width="345" height="69">
   <defs>
      <style type="text/css">
    @namespace "http://www.w3.org/2000/svg";
    .line                 {fill: none; stroke: #262626; stroke-width: 1;}
    .bold-line            {stroke: #0A0A0A; shape-rendering: crispEdges; stroke-width: 2;}
    .thin-line            {stroke: #0F0F0F; shape-rendering: crispEdges}
    .filled               {fill: #262626; stroke: none;}
    text.terminal         {font-family: Verdana, Sans-serif;
                            font-size: 12px;
                            fill: #0A0A0A;
                            font-weight: bold;
                          }
    text.nonterminal      {font-family: Verdana, Sans-serif;
                            font-size: 12px;
                            fill: #0D0D0D;
                            font-weight: normal;
                          }
    text.regexp           {font-family: Verdana, Sans-serif;
                            font-size: 12px;
                            fill: #0F0F0F;
                            font-weight: normal;
                          }
    rect, circle, polygon {fill: #262626; stroke: #262626;}
    rect.terminal         {fill: #ffffff; stroke: #262626; stroke-width: 1;}
    rect.nonterminal      {fill: #FFFFFF; stroke: #262626; stroke-width: 1;}
    rect.text             {fill: none; stroke: none;}
    polygon.regexp        {fill: #FFFFFF; stroke: #262626; stroke-width: 1;}
  </style>
   </defs>
   <polygon points="9 17 1 13 1 21"/>
   <polygon points="17 17 9 13 9 21"/>
   <a xmlns:xlink="http://www.w3.org/1999/xlink"
      xlink:href="#Conditions"
      xlink:title="Conditions">
      <rect x="51" y="35" width="88" height="32"/>
      <rect x="49" y="33" width="88" height="32" class="nonterminal"/>
      <text class="nonterminal" x="59" y="53">Conditions</text>
   </a>
   <rect x="159" y="35" width="24" height="32" rx="10"/>
   <rect x="157"
         y="33"
         width="24"
         height="32"
         class="terminal"
         rx="10"/>
   <text class="terminal" x="167" y="53">;</text>
   <a xmlns:xlink="http://www.w3.org/1999/xlink"
      xlink:href="#Conjunctive"
      xlink:title="Conjunctive">
      <rect x="223" y="3" width="94" height="32"/>
      <rect x="221" y="1" width="94" height="32" class="nonterminal"/>
      <text class="nonterminal" x="231" y="21">Conjunctive</text>
   </a>
   <path class="line"
         d="m17 17 h2 m20 0 h10 m0 0 h142 m-172 0 h20 m152 0 h20 m-192 0 q10 0 10 10 m172 0 q0 -10 10 -10 m-182 10 v12 m172 0 v-12 m-172 12 q0 10 10 10 m152 0 q10 0 10 -10 m-162 10 h10 m88 0 h10 m0 0 h10 m24 0 h10 m20 -32 h10 m94 0 h10 m3 0 h-3"/>
   <polygon points="335 17 343 13 343 21"/>
   <polygon points="335 17 327 13 327 21"/>
</svg>
