<?xml version="1.0" encoding="UTF-8"?>
<svg xmlns="http://www.w3.org/2000/svg" width="367" height="137">
   <defs>
      <style type="text/css">
    @namespace "http://www.w3.org/2000/svg";
    .line                 {fill: none; stroke: #262626; stroke-width: 1;}
    .bold-line            {stroke: #0A0A0A; shape-rendering: crispEdges; stroke-width: 2;}
    .thin-line            {stroke: #0F0F0F; shape-rendering: crispEdges}
    .filled               {fill: #262626; stroke: none;}
    text.terminal         {font-family: Verdana, Sans-serif;
                            font-size: 12px;
                            fill: #0A0A0A;
                            font-weight: bold;
                          }
    text.nonterminal      {font-family: Verdana, Sans-serif;
                            font-size: 12px;
                            fill: #0D0D0D;
                            font-weight: normal;
                          }
    text.regexp           {font-family: Verdana, Sans-serif;
                            font-size: 12px;
                            fill: #0F0F0F;
                            font-weight: normal;
                          }
    rect, circle, polygon {fill: #262626; stroke: #262626;}
    rect.terminal         {fill: #ffffff; stroke: #262626; stroke-width: 1;}
    rect.nonterminal      {fill: #FFFFFF; stroke: #262626; stroke-width: 1;}
    rect.text             {fill: none; stroke: none;}
    polygon.regexp        {fill: #FFFFFF; stroke: #262626; stroke-width: 1;}
  </style>
   </defs>
   <polygon points="9 51 1 47 1 55"/>
   <polygon points="17 51 9 47 9 55"/>
   <polygon points="51 19 58 3 106 3 113 19 106 35 58 35"/>
   <polygon points="49 17 56 1 104 1 111 17 104 33 56 33" class="regexp"/>
   <text class="regexp" x="64" y="21">[0-9]</text>
   <polygon points="173 53 180 37 228 37 235 53 228 69 180 69"/>
   <polygon points="171 51 178 35 226 35 233 51 226 67 178 67" class="regexp"/>
   <text class="regexp" x="186" y="55">[0-9]</text>
   <rect x="173" y="103" width="24" height="32" rx="10"/>
   <rect x="171"
         y="101"
         width="24"
         height="32"
         class="terminal"
         rx="10"/>
   <text class="terminal" x="181" y="121">.</text>
   <polygon points="237 119 244 103 292 103 299 119 292 135 244 135"/>
   <polygon points="235 117 242 101 290 101 297 117 290 133 242 133" class="regexp"/>
   <text class="regexp" x="250" y="121">[0-9]</text>
   <path class="line"
         d="m17 51 h2 m20 0 h10 m0 0 h72 m-102 0 l20 0 m-1 0 q-9 0 -9 -10 l0 -14 q0 -10 10 -10 m82 34 l20 0 m-20 0 q10 0 10 -10 l0 -14 q0 -10 -10 -10 m-82 0 h10 m62 0 h10 m40 34 h10 m62 0 h10 m0 0 h84 m-186 0 h20 m166 0 h20 m-206 0 q10 0 10 10 m186 0 q0 -10 10 -10 m-196 10 v46 m186 0 v-46 m-186 46 q0 10 10 10 m166 0 q10 0 10 -10 m-176 10 h10 m24 0 h10 m20 0 h10 m62 0 h10 m-102 0 l20 0 m-1 0 q-9 0 -9 -10 l0 -12 q0 -10 10 -10 m82 32 l20 0 m-20 0 q10 0 10 -10 l0 -12 q0 -10 -10 -10 m-82 0 h10 m0 0 h72 m43 -34 h-3"/>
   <polygon points="357 51 365 47 365 55"/>
   <polygon points="357 51 349 47 349 55"/>
</svg>
