<?xml version="1.0" encoding="UTF-8"?>
<svg xmlns="http://www.w3.org/2000/svg" width="359" height="81">
   <defs>
      <style type="text/css">
    @namespace "http://www.w3.org/2000/svg";
    .line                 {fill: none; stroke: #332900; stroke-width: 1;}
    .bold-line            {stroke: #141000; shape-rendering: crispEdges; stroke-width: 2;}
    .thin-line            {stroke: #1F1800; shape-rendering: crispEdges}
    .filled               {fill: #332900; stroke: none;}
    text.terminal         {font-family: Verdana, Sans-serif;
                            font-size: 12px;
                            fill: #141000;
                            font-weight: bold;
                          }
    text.nonterminal      {font-family: Verdana, Sans-serif;
                            font-size: 12px;
                            fill: #1A1400;
                            font-weight: normal;
                          }
    text.regexp           {font-family: Verdana, Sans-serif;
                            font-size: 12px;
                            fill: #1F1800;
                            font-weight: normal;
                          }
    rect, circle, polygon {fill: #332900; stroke: #332900;}
    rect.terminal         {fill: #FFDB4D; stroke: #332900; stroke-width: 1;}
    rect.nonterminal      {fill: #FFEC9E; stroke: #332900; stroke-width: 1;}
    rect.text             {fill: none; stroke: none;}
    polygon.regexp        {fill: #FFF4C7; stroke: #332900; stroke-width: 1;}
  </style>
   </defs>
   <polygon points="9 17 1 13 1 21"/>
   <polygon points="17 17 9 13 9 21"/>
   <a xmlns:xlink="http://www.w3.org/1999/xlink"
      xlink:href="#SetElement"
      xlink:title="SetElement">
      <rect x="31" y="3" width="92" height="32"/>
      <rect x="29" y="1" width="92" height="32" class="nonterminal"/>
      <text class="nonterminal" x="39" y="21">SetElement</text>
   </a>
   <rect x="163" y="3" width="30" height="32" rx="10"/>
   <rect x="161"
         y="1"
         width="30"
         height="32"
         class="terminal"
         rx="10"/>
   <text class="terminal" x="171" y="21">~</text>
   <rect x="163" y="47" width="34" height="32" rx="10"/>
   <rect x="161"
         y="45"
         width="34"
         height="32"
         class="terminal"
         rx="10"/>
   <text class="terminal" x="171" y="65">!~</text>
   <a xmlns:xlink="http://www.w3.org/1999/xlink"
      xlink:href="#SetNotation"
      xlink:title="SetNotation">
      <rect x="237" y="3" width="94" height="32"/>
      <rect x="235" y="1" width="94" height="32" class="nonterminal"/>
      <text class="nonterminal" x="245" y="21">SetNotation</text>
   </a>
   <path class="line"
         d="m17 17 h2 m0 0 h10 m92 0 h10 m20 0 h10 m30 0 h10 m0 0 h4 m-74 0 h20 m54 0 h20 m-94 0 q10 0 10 10 m74 0 q0 -10 10 -10 m-84 10 v24 m74 0 v-24 m-74 24 q0 10 10 10 m54 0 q10 0 10 -10 m-64 10 h10 m34 0 h10 m20 -44 h10 m94 0 h10 m3 0 h-3"/>
   <polygon points="349 17 357 13 357 21"/>
   <polygon points="349 17 341 13 341 21"/>
</svg>
