<?xml version="1.0" encoding="UTF-8"?>
<svg xmlns="http://www.w3.org/2000/svg" width="447" height="37">
   <defs>
      <style type="text/css">
    @namespace "http://www.w3.org/2000/svg";
    .line                 {fill: none; stroke: #332900; stroke-width: 1;}
    .bold-line            {stroke: #141000; shape-rendering: crispEdges; stroke-width: 2;}
    .thin-line            {stroke: #1F1800; shape-rendering: crispEdges}
    .filled               {fill: #332900; stroke: none;}
    text.terminal         {font-family: Verdana, Sans-serif;
                            font-size: 12px;
                            fill: #141000;
                            font-weight: bold;
                          }
    text.nonterminal      {font-family: Verdana, Sans-serif;
                            font-size: 12px;
                            fill: #1A1400;
                            font-weight: normal;
                          }
    text.regexp           {font-family: Verdana, Sans-serif;
                            font-size: 12px;
                            fill: #1F1800;
                            font-weight: normal;
                          }
    rect, circle, polygon {fill: #332900; stroke: #332900;}
    rect.terminal         {fill: #FFDB4D; stroke: #332900; stroke-width: 1;}
    rect.nonterminal      {fill: #FFEC9E; stroke: #332900; stroke-width: 1;}
    rect.text             {fill: none; stroke: none;}
    polygon.regexp        {fill: #FFF4C7; stroke: #332900; stroke-width: 1;}
  </style>
   </defs>
   <polygon points="9 17 1 13 1 21"/>
   <polygon points="17 17 9 13 9 21"/>
   <rect x="31" y="3" width="28" height="32" rx="10"/>
   <rect x="29"
         y="1"
         width="28"
         height="32"
         class="terminal"
         rx="10"/>
   <text class="terminal" x="39" y="21">{</text>
   <rect x="79" y="3" width="26" height="32" rx="10"/>
   <rect x="77"
         y="1"
         width="26"
         height="32"
         class="terminal"
         rx="10"/>
   <text class="terminal" x="87" y="21">|</text>
   <a xmlns:xlink="http://www.w3.org/1999/xlink"
      xlink:href="#SetElement"
      xlink:title="SetElement">
      <rect x="125" y="3" width="92" height="32"/>
      <rect x="123" y="1" width="92" height="32" class="nonterminal"/>
      <text class="nonterminal" x="133" y="21">SetElement</text>
   </a>
   <rect x="237" y="3" width="26" height="32" rx="10"/>
   <rect x="235"
         y="1"
         width="26"
         height="32"
         class="terminal"
         rx="10"/>
   <text class="terminal" x="245" y="21">|</text>
   <a xmlns:xlink="http://www.w3.org/1999/xlink"
      xlink:href="#Conditions"
      xlink:title="Conditions">
      <rect x="283" y="3" width="88" height="32"/>
      <rect x="281" y="1" width="88" height="32" class="nonterminal"/>
      <text class="nonterminal" x="291" y="21">Conditions</text>
   </a>
   <rect x="391" y="3" width="28" height="32" rx="10"/>
   <rect x="389"
         y="1"
         width="28"
         height="32"
         class="terminal"
         rx="10"/>
   <text class="terminal" x="399" y="21">}</text>
   <path class="line"
         d="m17 17 h2 m0 0 h10 m28 0 h10 m0 0 h10 m26 0 h10 m0 0 h10 m92 0 h10 m0 0 h10 m26 0 h10 m0 0 h10 m88 0 h10 m0 0 h10 m28 0 h10 m3 0 h-3"/>
   <polygon points="437 17 445 13 445 21"/>
   <polygon points="437 17 429 13 429 21"/>
</svg>
