<?xml version="1.0" encoding="UTF-8"?>
<svg xmlns="http://www.w3.org/2000/svg" width="193" height="81">
   <defs>
      <style type="text/css">
    @namespace "http://www.w3.org/2000/svg";
    .line                 {fill: none; stroke: #262626; stroke-width: 1;}
    .bold-line            {stroke: #0A0A0A; shape-rendering: crispEdges; stroke-width: 2;}
    .thin-line            {stroke: #0F0F0F; shape-rendering: crispEdges}
    .filled               {fill: #262626; stroke: none;}
    text.terminal         {font-family: Verdana, Sans-serif;
                            font-size: 12px;
                            fill: #0A0A0A;
                            font-weight: bold;
                          }
    text.nonterminal      {font-family: Verdana, Sans-serif;
                            font-size: 12px;
                            fill: #0D0D0D;
                            font-weight: normal;
                          }
    text.regexp           {font-family: Verdana, Sans-serif;
                            font-size: 12px;
                            fill: #0F0F0F;
                            font-weight: normal;
                          }
    rect, circle, polygon {fill: #262626; stroke: #262626;}
    rect.terminal         {fill: #ffffff; stroke: #262626; stroke-width: 1;}
    rect.nonterminal      {fill: #FFFFFF; stroke: #262626; stroke-width: 1;}
    rect.text             {fill: none; stroke: none;}
    polygon.regexp        {fill: #FFFFFF; stroke: #262626; stroke-width: 1;}
  </style>
   </defs>
   <polygon points="9 17 1 13 1 21"/>
   <polygon points="17 17 9 13 9 21"/>
   <a xmlns:xlink="http://www.w3.org/1999/xlink"
      xlink:href="#SetName"
      xlink:title="SetName">
      <rect x="51" y="3" width="78" height="32"/>
      <rect x="49" y="1" width="78" height="32" class="nonterminal"/>
      <text class="nonterminal" x="59" y="21">SetName</text>
   </a>
   <a xmlns:xlink="http://www.w3.org/1999/xlink"
      xlink:href="#SetNotation"
      xlink:title="SetNotation">
      <rect x="51" y="47" width="94" height="32"/>
      <rect x="49" y="45" width="94" height="32" class="nonterminal"/>
      <text class="nonterminal" x="59" y="65">SetNotation</text>
   </a>
   <path class="line"
         d="m17 17 h2 m20 0 h10 m78 0 h10 m0 0 h16 m-134 0 h20 m114 0 h20 m-154 0 q10 0 10 10 m134 0 q0 -10 10 -10 m-144 10 v24 m134 0 v-24 m-134 24 q0 10 10 10 m114 0 q10 0 10 -10 m-124 10 h10 m94 0 h10 m23 -44 h-3"/>
   <polygon points="183 17 191 13 191 21"/>
   <polygon points="183 17 175 13 175 21"/>
</svg>
