<?xml version="1.0" encoding="UTF-8"?>
<svg xmlns="http://www.w3.org/2000/svg" width="279" height="169">
   <defs>
      <style type="text/css">
    @namespace "http://www.w3.org/2000/svg";
    .line                 {fill: none; stroke: #262626; stroke-width: 1;}
    .bold-line            {stroke: #0A0A0A; shape-rendering: crispEdges; stroke-width: 2;}
    .thin-line            {stroke: #0F0F0F; shape-rendering: crispEdges}
    .filled               {fill: #262626; stroke: none;}
    text.terminal         {font-family: Verdana, Sans-serif;
                            font-size: 12px;
                            fill: #0A0A0A;
                            font-weight: bold;
                          }
    text.nonterminal      {font-family: Verdana, Sans-serif;
                            font-size: 12px;
                            fill: #0D0D0D;
                            font-weight: normal;
                          }
    text.regexp           {font-family: Verdana, Sans-serif;
                            font-size: 12px;
                            fill: #0F0F0F;
                            font-weight: normal;
                          }
    rect, circle, polygon {fill: #262626; stroke: #262626;}
    rect.terminal         {fill: #ffffff; stroke: #262626; stroke-width: 1;}
    rect.nonterminal      {fill: #FFFFFF; stroke: #262626; stroke-width: 1;}
    rect.text             {fill: none; stroke: none;}
    polygon.regexp        {fill: #FFFFFF; stroke: #262626; stroke-width: 1;}
  </style>
   </defs>
   <polygon points="9 17 1 13 1 21"/>
   <polygon points="17 17 9 13 9 21"/>
   <a xmlns:xlink="http://www.w3.org/1999/xlink"
      xlink:href="#Equation"
      xlink:title="Equation">
      <rect x="51" y="3" width="76" height="32"/>
      <rect x="49" y="1" width="76" height="32" class="nonterminal"/>
      <text class="nonterminal" x="59" y="21">Equation</text>
   </a>
   <a xmlns:xlink="http://www.w3.org/1999/xlink"
      xlink:href="#Inequation"
      xlink:title="Inequation">
      <rect x="51" y="47" width="88" height="32"/>
      <rect x="49" y="45" width="88" height="32" class="nonterminal"/>
      <text class="nonterminal" x="59" y="65">Inequation</text>
   </a>
   <a xmlns:xlink="http://www.w3.org/1999/xlink"
      xlink:href="#Inclusion"
      xlink:title="Inclusion">
      <rect x="51" y="91" width="76" height="32"/>
      <rect x="49" y="89" width="76" height="32" class="nonterminal"/>
      <text class="nonterminal" x="59" y="109">Inclusion</text>
   </a>
   <rect x="51" y="135" width="26" height="32" rx="10"/>
   <rect x="49"
         y="133"
         width="26"
         height="32"
         class="terminal"
         rx="10"/>
   <text class="terminal" x="59" y="153">(</text>
   <a xmlns:xlink="http://www.w3.org/1999/xlink"
      xlink:href="#Conditions"
      xlink:title="Conditions">
      <rect x="97" y="135" width="88" height="32"/>
      <rect x="95" y="133" width="88" height="32" class="nonterminal"/>
      <text class="nonterminal" x="105" y="153">Conditions</text>
   </a>
   <rect x="205" y="135" width="26" height="32" rx="10"/>
   <rect x="203"
         y="133"
         width="26"
         height="32"
         class="terminal"
         rx="10"/>
   <text class="terminal" x="213" y="153">)</text>
   <path class="line"
         d="m17 17 h2 m20 0 h10 m76 0 h10 m0 0 h104 m-220 0 h20 m200 0 h20 m-240 0 q10 0 10 10 m220 0 q0 -10 10 -10 m-230 10 v24 m220 0 v-24 m-220 24 q0 10 10 10 m200 0 q10 0 10 -10 m-210 10 h10 m88 0 h10 m0 0 h92 m-210 -10 v20 m220 0 v-20 m-220 20 v24 m220 0 v-24 m-220 24 q0 10 10 10 m200 0 q10 0 10 -10 m-210 10 h10 m76 0 h10 m0 0 h104 m-210 -10 v20 m220 0 v-20 m-220 20 v24 m220 0 v-24 m-220 24 q0 10 10 10 m200 0 q10 0 10 -10 m-210 10 h10 m26 0 h10 m0 0 h10 m88 0 h10 m0 0 h10 m26 0 h10 m23 -132 h-3"/>
   <polygon points="269 17 277 13 277 21"/>
   <polygon points="269 17 261 13 261 21"/>
</svg>
