<?xml version="1.0" encoding="UTF-8"?>
<svg xmlns="http://www.w3.org/2000/svg" width="391" height="113">
   <defs>
      <style type="text/css">
    @namespace "http://www.w3.org/2000/svg";
    .line                 {fill: none; stroke: #262626; stroke-width: 1;}
    .bold-line            {stroke: #0A0A0A; shape-rendering: crispEdges; stroke-width: 2;}
    .thin-line            {stroke: #0F0F0F; shape-rendering: crispEdges}
    .filled               {fill: #262626; stroke: none;}
    text.terminal         {font-family: Verdana, Sans-serif;
                            font-size: 12px;
                            fill: #0A0A0A;
                            font-weight: bold;
                          }
    text.nonterminal      {font-family: Verdana, Sans-serif;
                            font-size: 12px;
                            fill: #0D0D0D;
                            font-weight: normal;
                          }
    text.regexp           {font-family: Verdana, Sans-serif;
                            font-size: 12px;
                            fill: #0F0F0F;
                            font-weight: normal;
                          }
    rect, circle, polygon {fill: #262626; stroke: #262626;}
    rect.terminal         {fill: #ffffff; stroke: #262626; stroke-width: 1;}
    rect.nonterminal      {fill: #FFFFFF; stroke: #262626; stroke-width: 1;}
    rect.text             {fill: none; stroke: none;}
    polygon.regexp        {fill: #FFFFFF; stroke: #262626; stroke-width: 1;}
  </style>
   </defs>
   <polygon points="9 17 1 13 1 21"/>
   <polygon points="17 17 9 13 9 21"/>
   <a xmlns:xlink="http://www.w3.org/1999/xlink"
      xlink:href="#SetExpression"
      xlink:title="SetExpression">
      <rect x="51" y="35" width="110" height="32"/>
      <rect x="49" y="33" width="110" height="32" class="nonterminal"/>
      <text class="nonterminal" x="59" y="53">SetExpression</text>
   </a>
   <rect x="201" y="35" width="30" height="32" rx="10"/>
   <rect x="199"
         y="33"
         width="30"
         height="32"
         class="terminal"
         rx="10"/>
   <text class="terminal" x="209" y="53">+</text>
   <rect x="201" y="79" width="26" height="32" rx="10"/>
   <rect x="199"
         y="77"
         width="26"
         height="32"
         class="terminal"
         rx="10"/>
   <text class="terminal" x="209" y="97">-</text>
   <a xmlns:xlink="http://www.w3.org/1999/xlink"
      xlink:href="#SetTerm"
      xlink:title="SetTerm">
      <rect x="291" y="3" width="72" height="32"/>
      <rect x="289" y="1" width="72" height="32" class="nonterminal"/>
      <text class="nonterminal" x="299" y="21">SetTerm</text>
   </a>
   <path class="line"
         d="m17 17 h2 m20 0 h10 m0 0 h210 m-240 0 h20 m220 0 h20 m-260 0 q10 0 10 10 m240 0 q0 -10 10 -10 m-250 10 v12 m240 0 v-12 m-240 12 q0 10 10 10 m220 0 q10 0 10 -10 m-230 10 h10 m110 0 h10 m20 0 h10 m30 0 h10 m-70 0 h20 m50 0 h20 m-90 0 q10 0 10 10 m70 0 q0 -10 10 -10 m-80 10 v24 m70 0 v-24 m-70 24 q0 10 10 10 m50 0 q10 0 10 -10 m-60 10 h10 m26 0 h10 m0 0 h4 m40 -76 h10 m72 0 h10 m3 0 h-3"/>
   <polygon points="381 17 389 13 389 21"/>
   <polygon points="381 17 373 13 373 21"/>
</svg>
