<?xml version="1.0" encoding="UTF-8"?>
<svg xmlns="http://www.w3.org/2000/svg" width="179" height="213">
   <defs>
      <style type="text/css">
    @namespace "http://www.w3.org/2000/svg";
    .line                 {fill: none; stroke: #332900; stroke-width: 1;}
    .bold-line            {stroke: #141000; shape-rendering: crispEdges; stroke-width: 2;}
    .thin-line            {stroke: #1F1800; shape-rendering: crispEdges}
    .filled               {fill: #332900; stroke: none;}
    text.terminal         {font-family: Verdana, Sans-serif;
                            font-size: 12px;
                            fill: #141000;
                            font-weight: bold;
                          }
    text.nonterminal      {font-family: Verdana, Sans-serif;
                            font-size: 12px;
                            fill: #1A1400;
                            font-weight: normal;
                          }
    text.regexp           {font-family: Verdana, Sans-serif;
                            font-size: 12px;
                            fill: #1F1800;
                            font-weight: normal;
                          }
    rect, circle, polygon {fill: #332900; stroke: #332900;}
    rect.terminal         {fill: #FFDB4D; stroke: #332900; stroke-width: 1;}
    rect.nonterminal      {fill: #FFEC9E; stroke: #332900; stroke-width: 1;}
    rect.text             {fill: none; stroke: none;}
    polygon.regexp        {fill: #FFF4C7; stroke: #332900; stroke-width: 1;}
  </style>
   </defs>
   <polygon points="9 193 1 189 1 197"/>
   <polygon points="17 193 9 189 9 197"/>
   <a xmlns:xlink="http://www.w3.org/1999/xlink"
      xlink:href="#SetFactor"
      xlink:title="SetFactor">
      <rect x="51" y="179" width="80" height="32"/>
      <rect x="49" y="177" width="80" height="32" class="nonterminal"/>
      <text class="nonterminal" x="59" y="197">SetFactor</text>
   </a>
   <rect x="51" y="135" width="30" height="32" rx="10"/>
   <rect x="49"
         y="133"
         width="30"
         height="32"
         class="terminal"
         rx="10"/>
   <text class="terminal" x="59" y="153">+</text>
   <rect x="51" y="91" width="26" height="32" rx="10"/>
   <rect x="49"
         y="89"
         width="26"
         height="32"
         class="terminal"
         rx="10"/>
   <text class="terminal" x="59" y="109">-</text>
   <rect x="51" y="47" width="28" height="32" rx="10"/>
   <rect x="49"
         y="45"
         width="28"
         height="32"
         class="terminal"
         rx="10"/>
   <text class="terminal" x="59" y="65">*</text>
   <rect x="51" y="3" width="30" height="32" rx="10"/>
   <rect x="49"
         y="1"
         width="30"
         height="32"
         class="terminal"
         rx="10"/>
   <text class="terminal" x="59" y="21">^</text>
   <path class="line"
         d="m17 193 h2 m20 0 h10 m80 0 h10 m-120 0 l20 0 m-1 0 q-9 0 -9 -10 l0 -24 q0 -10 10 -10 m100 44 l20 0 m-20 0 q10 0 10 -10 l0 -24 q0 -10 -10 -10 m-100 0 h10 m30 0 h10 m0 0 h50 m-110 10 l0 -44 q0 -10 10 -10 m110 54 l0 -44 q0 -10 -10 -10 m-100 0 h10 m26 0 h10 m0 0 h54 m-110 10 l0 -44 q0 -10 10 -10 m110 54 l0 -44 q0 -10 -10 -10 m-100 0 h10 m28 0 h10 m0 0 h52 m-110 10 l0 -44 q0 -10 10 -10 m110 54 l0 -44 q0 -10 -10 -10 m-100 0 h10 m30 0 h10 m0 0 h50 m23 176 h-3"/>
   <polygon points="169 193 177 189 177 197"/>
   <polygon points="169 193 161 189 161 197"/>
</svg>
