<?xml version="1.0" encoding="UTF-8"?>
<svg xmlns="http://www.w3.org/2000/svg" width="301" height="125">
   <defs>
      <style type="text/css">
    @namespace "http://www.w3.org/2000/svg";
    .line                 {fill: none; stroke: #262626; stroke-width: 1;}
    .bold-line            {stroke: #0A0A0A; shape-rendering: crispEdges; stroke-width: 2;}
    .thin-line            {stroke: #0F0F0F; shape-rendering: crispEdges}
    .filled               {fill: #262626; stroke: none;}
    text.terminal         {font-family: Verdana, Sans-serif;
                            font-size: 12px;
                            fill: #0A0A0A;
                            font-weight: bold;
                          }
    text.nonterminal      {font-family: Verdana, Sans-serif;
                            font-size: 12px;
                            fill: #0D0D0D;
                            font-weight: normal;
                          }
    text.regexp           {font-family: Verdana, Sans-serif;
                            font-size: 12px;
                            fill: #0F0F0F;
                            font-weight: normal;
                          }
    rect, circle, polygon {fill: #262626; stroke: #262626;}
    rect.terminal         {fill: #ffffff; stroke: #262626; stroke-width: 1;}
    rect.nonterminal      {fill: #FFFFFF; stroke: #262626; stroke-width: 1;}
    rect.text             {fill: none; stroke: none;}
    polygon.regexp        {fill: #FFFFFF; stroke: #262626; stroke-width: 1;}
  </style>
   </defs>
   <polygon points="9 17 1 13 1 21"/>
   <polygon points="17 17 9 13 9 21"/>
   <a xmlns:xlink="http://www.w3.org/1999/xlink"
      xlink:href="#SetName"
      xlink:title="SetName">
      <rect x="51" y="3" width="78" height="32"/>
      <rect x="49" y="1" width="78" height="32" class="nonterminal"/>
      <text class="nonterminal" x="59" y="21">SetName</text>
   </a>
   <a xmlns:xlink="http://www.w3.org/1999/xlink"
      xlink:href="#RangeDefinition"
      xlink:title="RangeDefinition">
      <rect x="51" y="47" width="120" height="32"/>
      <rect x="49" y="45" width="120" height="32" class="nonterminal"/>
      <text class="nonterminal" x="59" y="65">RangeDefinition</text>
   </a>
   <rect x="51" y="91" width="26" height="32" rx="10"/>
   <rect x="49"
         y="89"
         width="26"
         height="32"
         class="terminal"
         rx="10"/>
   <text class="terminal" x="59" y="109">(</text>
   <a xmlns:xlink="http://www.w3.org/1999/xlink"
      xlink:href="#SetExpression"
      xlink:title="SetExpression">
      <rect x="97" y="91" width="110" height="32"/>
      <rect x="95" y="89" width="110" height="32" class="nonterminal"/>
      <text class="nonterminal" x="105" y="109">SetExpression</text>
   </a>
   <rect x="227" y="91" width="26" height="32" rx="10"/>
   <rect x="225"
         y="89"
         width="26"
         height="32"
         class="terminal"
         rx="10"/>
   <text class="terminal" x="235" y="109">)</text>
   <path class="line"
         d="m17 17 h2 m20 0 h10 m78 0 h10 m0 0 h124 m-242 0 h20 m222 0 h20 m-262 0 q10 0 10 10 m242 0 q0 -10 10 -10 m-252 10 v24 m242 0 v-24 m-242 24 q0 10 10 10 m222 0 q10 0 10 -10 m-232 10 h10 m120 0 h10 m0 0 h82 m-232 -10 v20 m242 0 v-20 m-242 20 v24 m242 0 v-24 m-242 24 q0 10 10 10 m222 0 q10 0 10 -10 m-232 10 h10 m26 0 h10 m0 0 h10 m110 0 h10 m0 0 h10 m26 0 h10 m23 -88 h-3"/>
   <polygon points="291 17 299 13 299 21"/>
   <polygon points="291 17 283 13 283 21"/>
</svg>
