<?xml version="1.0" encoding="UTF-8"?>
<svg xmlns="http://www.w3.org/2000/svg" width="489" height="125">
   <defs>
      <style type="text/css">
    @namespace "http://www.w3.org/2000/svg";
    .line                 {fill: none; stroke: #262626; stroke-width: 1;}
    .bold-line            {stroke: #0A0A0A; shape-rendering: crispEdges; stroke-width: 2;}
    .thin-line            {stroke: #0F0F0F; shape-rendering: crispEdges}
    .filled               {fill: #262626; stroke: none;}
    text.terminal         {font-family: Verdana, Sans-serif;
                            font-size: 12px;
                            fill: #0A0A0A;
                            font-weight: bold;
                          }
    text.nonterminal      {font-family: Verdana, Sans-serif;
                            font-size: 12px;
                            fill: #0D0D0D;
                            font-weight: normal;
                          }
    text.regexp           {font-family: Verdana, Sans-serif;
                            font-size: 12px;
                            fill: #0F0F0F;
                            font-weight: normal;
                          }
    rect, circle, polygon {fill: #262626; stroke: #262626;}
    rect.terminal         {fill: #ffffff; stroke: #262626; stroke-width: 1;}
    rect.nonterminal      {fill: #FFFFFF; stroke: #262626; stroke-width: 1;}
    rect.text             {fill: none; stroke: none;}
    polygon.regexp        {fill: #FFFFFF; stroke: #262626; stroke-width: 1;}
  </style>
   </defs>
   <polygon points="9 17 1 13 1 21"/>
   <polygon points="17 17 9 13 9 21"/>
   <rect x="51" y="3" width="28" height="32" rx="10"/>
   <rect x="49"
         y="1"
         width="28"
         height="32"
         class="terminal"
         rx="10"/>
   <text class="terminal" x="59" y="21">{</text>
   <rect x="119" y="3" width="26" height="32" rx="10"/>
   <rect x="117"
         y="1"
         width="26"
         height="32"
         class="terminal"
         rx="10"/>
   <text class="terminal" x="127" y="21">|</text>
   <a xmlns:xlink="http://www.w3.org/1999/xlink"
      xlink:href="#Tuple"
      xlink:title="Tuple">
      <rect x="165" y="3" width="54" height="32"/>
      <rect x="163" y="1" width="54" height="32" class="nonterminal"/>
      <text class="nonterminal" x="173" y="21">Tuple</text>
   </a>
   <rect x="239" y="3" width="26" height="32" rx="10"/>
   <rect x="237"
         y="1"
         width="26"
         height="32"
         class="terminal"
         rx="10"/>
   <text class="terminal" x="247" y="21">|</text>
   <a xmlns:xlink="http://www.w3.org/1999/xlink"
      xlink:href="#Conditions"
      xlink:title="Conditions">
      <rect x="285" y="3" width="88" height="32"/>
      <rect x="283" y="1" width="88" height="32" class="nonterminal"/>
      <text class="nonterminal" x="293" y="21">Conditions</text>
   </a>
   <a xmlns:xlink="http://www.w3.org/1999/xlink"
      xlink:href="#Tuples"
      xlink:title="Tuples">
      <rect x="119" y="47" width="60" height="32"/>
      <rect x="117" y="45" width="60" height="32" class="nonterminal"/>
      <text class="nonterminal" x="127" y="65">Tuples</text>
   </a>
   <rect x="413" y="3" width="28" height="32" rx="10"/>
   <rect x="411"
         y="1"
         width="28"
         height="32"
         class="terminal"
         rx="10"/>
   <text class="terminal" x="421" y="21">}</text>
   <a xmlns:xlink="http://www.w3.org/1999/xlink"
      xlink:href="#SetSpecifier"
      xlink:title="SetSpecifier">
      <rect x="51" y="91" width="94" height="32"/>
      <rect x="49" y="89" width="94" height="32" class="nonterminal"/>
      <text class="nonterminal" x="59" y="109">SetSpecifier</text>
   </a>
   <path class="line"
         d="m17 17 h2 m20 0 h10 m28 0 h10 m20 0 h10 m26 0 h10 m0 0 h10 m54 0 h10 m0 0 h10 m26 0 h10 m0 0 h10 m88 0 h10 m-294 0 h20 m274 0 h20 m-314 0 q10 0 10 10 m294 0 q0 -10 10 -10 m-304 10 v24 m294 0 v-24 m-294 24 q0 10 10 10 m274 0 q10 0 10 -10 m-284 10 h10 m60 0 h10 m0 0 h194 m20 -44 h10 m28 0 h10 m-430 0 h20 m410 0 h20 m-450 0 q10 0 10 10 m430 0 q0 -10 10 -10 m-440 10 v68 m430 0 v-68 m-430 68 q0 10 10 10 m410 0 q10 0 10 -10 m-420 10 h10 m94 0 h10 m0 0 h296 m23 -88 h-3"/>
   <polygon points="479 17 487 13 487 21"/>
   <polygon points="479 17 471 13 471 21"/>
</svg>
