<?xml version="1.0" encoding="UTF-8"?>
<svg xmlns="http://www.w3.org/2000/svg" width="383" height="69">
   <defs>
      <style type="text/css">
    @namespace "http://www.w3.org/2000/svg";
    .line                 {fill: none; stroke: #262626; stroke-width: 1;}
    .bold-line            {stroke: #0A0A0A; shape-rendering: crispEdges; stroke-width: 2;}
    .thin-line            {stroke: #0F0F0F; shape-rendering: crispEdges}
    .filled               {fill: #262626; stroke: none;}
    text.terminal         {font-family: Verdana, Sans-serif;
                            font-size: 12px;
                            fill: #0A0A0A;
                            font-weight: bold;
                          }
    text.nonterminal      {font-family: Verdana, Sans-serif;
                            font-size: 12px;
                            fill: #0D0D0D;
                            font-weight: normal;
                          }
    text.regexp           {font-family: Verdana, Sans-serif;
                            font-size: 12px;
                            fill: #0F0F0F;
                            font-weight: normal;
                          }
    rect, circle, polygon {fill: #262626; stroke: #262626;}
    rect.terminal         {fill: #ffffff; stroke: #262626; stroke-width: 1;}
    rect.nonterminal      {fill: #FFFFFF; stroke: #262626; stroke-width: 1;}
    rect.text             {fill: none; stroke: none;}
    polygon.regexp        {fill: #FFFFFF; stroke: #262626; stroke-width: 1;}
  </style>
   </defs>
   <polygon points="9 17 1 13 1 21"/>
   <polygon points="17 17 9 13 9 21"/>
   <a xmlns:xlink="http://www.w3.org/1999/xlink"
      xlink:href="#SetName"
      xlink:title="SetName">
      <rect x="31" y="3" width="78" height="32"/>
      <rect x="29" y="1" width="78" height="32" class="nonterminal"/>
      <text class="nonterminal" x="39" y="21">SetName</text>
   </a>
   <rect x="149" y="35" width="26" height="32" rx="10"/>
   <rect x="147"
         y="33"
         width="26"
         height="32"
         class="terminal"
         rx="10"/>
   <text class="terminal" x="157" y="53">(</text>
   <a xmlns:xlink="http://www.w3.org/1999/xlink"
      xlink:href="#Parameters"
      xlink:title="Parameters">
      <rect x="195" y="35" width="94" height="32"/>
      <rect x="193" y="33" width="94" height="32" class="nonterminal"/>
      <text class="nonterminal" x="203" y="53">Parameters</text>
   </a>
   <rect x="309" y="35" width="26" height="32" rx="10"/>
   <rect x="307"
         y="33"
         width="26"
         height="32"
         class="terminal"
         rx="10"/>
   <text class="terminal" x="317" y="53">)</text>
   <path class="line"
         d="m17 17 h2 m0 0 h10 m78 0 h10 m20 0 h10 m0 0 h196 m-226 0 h20 m206 0 h20 m-246 0 q10 0 10 10 m226 0 q0 -10 10 -10 m-236 10 v12 m226 0 v-12 m-226 12 q0 10 10 10 m206 0 q10 0 10 -10 m-216 10 h10 m26 0 h10 m0 0 h10 m94 0 h10 m0 0 h10 m26 0 h10 m23 -32 h-3"/>
   <polygon points="373 17 381 13 381 21"/>
   <polygon points="373 17 365 13 365 21"/>
</svg>
