<?xml version="1.0" encoding="UTF-8"?>
<svg xmlns="http://www.w3.org/2000/svg" width="253" height="995">
   <defs>
      <style type="text/css">
    @namespace "http://www.w3.org/2000/svg";
    .line                 {fill: none; stroke: #332900; stroke-width: 1;}
    .bold-line            {stroke: #141000; shape-rendering: crispEdges; stroke-width: 2;}
    .thin-line            {stroke: #1F1800; shape-rendering: crispEdges}
    .filled               {fill: #332900; stroke: none;}
    text.terminal         {font-family: Verdana, Sans-serif;
                            font-size: 12px;
                            fill: #141000;
                            font-weight: bold;
                          }
    text.nonterminal      {font-family: Verdana, Sans-serif;
                            font-size: 12px;
                            fill: #1A1400;
                            font-weight: normal;
                          }
    text.regexp           {font-family: Verdana, Sans-serif;
                            font-size: 12px;
                            fill: #1F1800;
                            font-weight: normal;
                          }
    rect, circle, polygon {fill: #332900; stroke: #332900;}
    rect.terminal         {fill: #FFDB4D; stroke: #332900; stroke-width: 1;}
    rect.nonterminal      {fill: #FFEC9E; stroke: #332900; stroke-width: 1;}
    rect.text             {fill: none; stroke: none;}
    polygon.regexp        {fill: #FFF4C7; stroke: #332900; stroke-width: 1;}
  </style>
   </defs>
   <polygon points="9 975 1 971 1 979"/>
   <polygon points="17 975 9 971 9 979"/>
   <rect x="31" y="961" width="26" height="32" rx="10"/>
   <rect x="29"
         y="959"
         width="26"
         height="32"
         class="terminal"
         rx="10"/>
   <text class="terminal" x="39" y="979">"</text>
   <polygon points="97 943 104 927 150 927 157 943 150 959 104 959"/>
   <polygon points="95 941 102 925 148 925 155 941 148 957 102 957" class="regexp"/>
   <text class="regexp" x="110" y="945">[a-z]</text>
   <polygon points="97 899 104 883 152 883 159 899 152 915 104 915"/>
   <polygon points="95 897 102 881 150 881 157 897 150 913 102 913" class="regexp"/>
   <text class="regexp" x="110" y="901">[A-Z]</text>
   <polygon points="97 855 104 839 152 839 159 855 152 871 104 871"/>
   <polygon points="95 853 102 837 150 837 157 853 150 869 102 869" class="regexp"/>
   <text class="regexp" x="110" y="857">[0-9]</text>
   <rect x="97" y="795" width="28" height="32" rx="10"/>
   <rect x="95"
         y="793"
         width="28"
         height="32"
         class="terminal"
         rx="10"/>
   <text class="terminal" x="105" y="813">_</text>
   <rect x="97" y="751" width="24" height="32" rx="10"/>
   <rect x="95"
         y="749"
         width="24"
         height="32"
         class="terminal"
         rx="10"/>
   <text class="terminal" x="105" y="769"/>
   <rect x="97" y="707" width="28" height="32" rx="10"/>
   <rect x="95"
         y="705"
         width="28"
         height="32"
         class="terminal"
         rx="10"/>
   <text class="terminal" x="105" y="725">\</text>
   <rect x="97" y="663" width="24" height="32" rx="10"/>
   <rect x="95"
         y="661"
         width="24"
         height="32"
         class="terminal"
         rx="10"/>
   <text class="terminal" x="105" y="681">t</text>
   <rect x="97" y="619" width="24" height="32" rx="10"/>
   <rect x="95"
         y="617"
         width="24"
         height="32"
         class="terminal"
         rx="10"/>
   <text class="terminal" x="105" y="637">.</text>
   <rect x="97" y="575" width="24" height="32" rx="10"/>
   <rect x="95"
         y="573"
         width="24"
         height="32"
         class="terminal"
         rx="10"/>
   <text class="terminal" x="105" y="593">:</text>
   <rect x="97" y="531" width="24" height="32" rx="10"/>
   <rect x="95"
         y="529"
         width="24"
         height="32"
         class="terminal"
         rx="10"/>
   <text class="terminal" x="105" y="549">;</text>
   <rect x="97" y="487" width="30" height="32" rx="10"/>
   <rect x="95"
         y="485"
         width="30"
         height="32"
         class="terminal"
         rx="10"/>
   <text class="terminal" x="105" y="505">=</text>
   <rect x="97" y="443" width="24" height="32" rx="10"/>
   <rect x="95"
         y="441"
         width="24"
         height="32"
         class="terminal"
         rx="10"/>
   <text class="terminal" x="105" y="461">!</text>
   <rect x="97" y="399" width="26" height="32" rx="10"/>
   <rect x="95"
         y="397"
         width="26"
         height="32"
         class="terminal"
         rx="10"/>
   <text class="terminal" x="105" y="417">?</text>
   <rect x="97" y="355" width="28" height="32" rx="10"/>
   <rect x="95"
         y="353"
         width="28"
         height="32"
         class="terminal"
         rx="10"/>
   <text class="terminal" x="105" y="373">$</text>
   <rect x="97" y="311" width="34" height="32" rx="10"/>
   <rect x="95"
         y="309"
         width="34"
         height="32"
         class="terminal"
         rx="10"/>
   <text class="terminal" x="105" y="329">%</text>
   <rect x="97" y="267" width="30" height="32" rx="10"/>
   <rect x="95"
         y="265"
         width="30"
         height="32"
         class="terminal"
         rx="10"/>
   <text class="terminal" x="105" y="285">&amp;</text>
   <rect x="97" y="223" width="26" height="32" rx="10"/>
   <rect x="95"
         y="221"
         width="26"
         height="32"
         class="terminal"
         rx="10"/>
   <text class="terminal" x="105" y="241">(</text>
   <rect x="97" y="179" width="26" height="32" rx="10"/>
   <rect x="95"
         y="177"
         width="26"
         height="32"
         class="terminal"
         rx="10"/>
   <text class="terminal" x="105" y="197">)</text>
   <rect x="97" y="135" width="28" height="32" rx="10"/>
   <rect x="95"
         y="133"
         width="28"
         height="32"
         class="terminal"
         rx="10"/>
   <text class="terminal" x="105" y="153">/</text>
   <rect x="97" y="91" width="30" height="32" rx="10"/>
   <rect x="95"
         y="89"
         width="30"
         height="32"
         class="terminal"
         rx="10"/>
   <text class="terminal" x="105" y="109">&lt;</text>
   <rect x="97" y="47" width="30" height="32" rx="10"/>
   <rect x="95"
         y="45"
         width="30"
         height="32"
         class="terminal"
         rx="10"/>
   <text class="terminal" x="105" y="65">&gt;</text>
   <rect x="97" y="3" width="26" height="32" rx="10"/>
   <rect x="95"
         y="1"
         width="26"
         height="32"
         class="terminal"
         rx="10"/>
   <text class="terminal" x="105" y="21">-</text>
   <rect x="199" y="961" width="26" height="32" rx="10"/>
   <rect x="197"
         y="959"
         width="26"
         height="32"
         class="terminal"
         rx="10"/>
   <text class="terminal" x="207" y="979">"</text>
   <path class="line"
         d="m17 975 h2 m0 0 h10 m26 0 h10 m20 0 h10 m0 0 h72 m-102 0 l20 0 m-1 0 q-9 0 -9 -10 l0 -14 q0 -10 10 -10 m82 34 l20 0 m-20 0 q10 0 10 -10 l0 -14 q0 -10 -10 -10 m-82 0 h10 m60 0 h10 m0 0 h2 m-92 10 l0 -44 q0 -10 10 -10 m92 54 l0 -44 q0 -10 -10 -10 m-82 0 h10 m62 0 h10 m-92 10 l0 -44 q0 -10 10 -10 m92 54 l0 -44 q0 -10 -10 -10 m-82 0 h10 m62 0 h10 m-92 10 l0 -44 q0 -10 10 -10 m92 54 l0 -44 q0 -10 -10 -10 m-82 0 h10 m28 0 h10 m0 0 h34 m-92 10 l0 -44 q0 -10 10 -10 m92 54 l0 -44 q0 -10 -10 -10 m-82 0 h10 m24 0 h10 m0 0 h38 m-92 10 l0 -44 q0 -10 10 -10 m92 54 l0 -44 q0 -10 -10 -10 m-82 0 h10 m28 0 h10 m0 0 h34 m-92 10 l0 -44 q0 -10 10 -10 m92 54 l0 -44 q0 -10 -10 -10 m-82 0 h10 m24 0 h10 m0 0 h38 m-92 10 l0 -44 q0 -10 10 -10 m92 54 l0 -44 q0 -10 -10 -10 m-82 0 h10 m24 0 h10 m0 0 h38 m-92 10 l0 -44 q0 -10 10 -10 m92 54 l0 -44 q0 -10 -10 -10 m-82 0 h10 m24 0 h10 m0 0 h38 m-92 10 l0 -44 q0 -10 10 -10 m92 54 l0 -44 q0 -10 -10 -10 m-82 0 h10 m24 0 h10 m0 0 h38 m-92 10 l0 -44 q0 -10 10 -10 m92 54 l0 -44 q0 -10 -10 -10 m-82 0 h10 m30 0 h10 m0 0 h32 m-92 10 l0 -44 q0 -10 10 -10 m92 54 l0 -44 q0 -10 -10 -10 m-82 0 h10 m24 0 h10 m0 0 h38 m-92 10 l0 -44 q0 -10 10 -10 m92 54 l0 -44 q0 -10 -10 -10 m-82 0 h10 m26 0 h10 m0 0 h36 m-92 10 l0 -44 q0 -10 10 -10 m92 54 l0 -44 q0 -10 -10 -10 m-82 0 h10 m28 0 h10 m0 0 h34 m-92 10 l0 -44 q0 -10 10 -10 m92 54 l0 -44 q0 -10 -10 -10 m-82 0 h10 m34 0 h10 m0 0 h28 m-92 10 l0 -44 q0 -10 10 -10 m92 54 l0 -44 q0 -10 -10 -10 m-82 0 h10 m30 0 h10 m0 0 h32 m-92 10 l0 -44 q0 -10 10 -10 m92 54 l0 -44 q0 -10 -10 -10 m-82 0 h10 m26 0 h10 m0 0 h36 m-92 10 l0 -44 q0 -10 10 -10 m92 54 l0 -44 q0 -10 -10 -10 m-82 0 h10 m26 0 h10 m0 0 h36 m-92 10 l0 -44 q0 -10 10 -10 m92 54 l0 -44 q0 -10 -10 -10 m-82 0 h10 m28 0 h10 m0 0 h34 m-92 10 l0 -44 q0 -10 10 -10 m92 54 l0 -44 q0 -10 -10 -10 m-82 0 h10 m30 0 h10 m0 0 h32 m-92 10 l0 -44 q0 -10 10 -10 m92 54 l0 -44 q0 -10 -10 -10 m-82 0 h10 m30 0 h10 m0 0 h32 m-92 10 l0 -44 q0 -10 10 -10 m92 54 l0 -44 q0 -10 -10 -10 m-82 0 h10 m26 0 h10 m0 0 h36 m20 958 h10 m26 0 h10 m3 0 h-3"/>
   <polygon points="243 975 251 971 251 979"/>
   <polygon points="243 975 235 971 235 979"/>
</svg>
