<?xml version="1.0" encoding="UTF-8"?>
<svg xmlns="http://www.w3.org/2000/svg" width="263" height="157">
   <defs>
      <style type="text/css">
    @namespace "http://www.w3.org/2000/svg";
    .line                 {fill: none; stroke: #332900; stroke-width: 1;}
    .bold-line            {stroke: #141000; shape-rendering: crispEdges; stroke-width: 2;}
    .thin-line            {stroke: #1F1800; shape-rendering: crispEdges}
    .filled               {fill: #332900; stroke: none;}
    text.terminal         {font-family: Verdana, Sans-serif;
                            font-size: 12px;
                            fill: #141000;
                            font-weight: bold;
                          }
    text.nonterminal      {font-family: Verdana, Sans-serif;
                            font-size: 12px;
                            fill: #1A1400;
                            font-weight: normal;
                          }
    text.regexp           {font-family: Verdana, Sans-serif;
                            font-size: 12px;
                            fill: #1F1800;
                            font-weight: normal;
                          }
    rect, circle, polygon {fill: #332900; stroke: #332900;}
    rect.terminal         {fill: #FFDB4D; stroke: #332900; stroke-width: 1;}
    rect.nonterminal      {fill: #FFEC9E; stroke: #332900; stroke-width: 1;}
    rect.text             {fill: none; stroke: none;}
    polygon.regexp        {fill: #FFF4C7; stroke: #332900; stroke-width: 1;}
  </style>
   </defs>
   <polygon points="9 17 1 13 1 21"/>
   <polygon points="17 17 9 13 9 21"/>
   <a xmlns:xlink="http://www.w3.org/1999/xlink"
      xlink:href="#Variable"
      xlink:title="Variable">
      <rect x="51" y="3" width="72" height="32"/>
      <rect x="49" y="1" width="72" height="32" class="nonterminal"/>
      <text class="nonterminal" x="59" y="21">Variable</text>
   </a>
   <rect x="71" y="79" width="26" height="32" rx="10"/>
   <rect x="69"
         y="77"
         width="26"
         height="32"
         class="terminal"
         rx="10"/>
   <text class="terminal" x="79" y="97">-</text>
   <a xmlns:xlink="http://www.w3.org/1999/xlink"
      xlink:href="#Constant"
      xlink:title="Constant">
      <rect x="137" y="47" width="78" height="32"/>
      <rect x="135" y="45" width="78" height="32" class="nonterminal"/>
      <text class="nonterminal" x="145" y="65">Constant</text>
   </a>
   <a xmlns:xlink="http://www.w3.org/1999/xlink"
      xlink:href="#String"
      xlink:title="String">
      <rect x="51" y="123" width="58" height="32"/>
      <rect x="49" y="121" width="58" height="32" class="nonterminal"/>
      <text class="nonterminal" x="59" y="141">String</text>
   </a>
   <path class="line"
         d="m17 17 h2 m20 0 h10 m72 0 h10 m0 0 h92 m-204 0 h20 m184 0 h20 m-224 0 q10 0 10 10 m204 0 q0 -10 10 -10 m-214 10 v24 m204 0 v-24 m-204 24 q0 10 10 10 m184 0 q10 0 10 -10 m-174 10 h10 m0 0 h36 m-66 0 h20 m46 0 h20 m-86 0 q10 0 10 10 m66 0 q0 -10 10 -10 m-76 10 v12 m66 0 v-12 m-66 12 q0 10 10 10 m46 0 q10 0 10 -10 m-56 10 h10 m26 0 h10 m20 -32 h10 m78 0 h10 m-194 -10 v20 m204 0 v-20 m-204 20 v56 m204 0 v-56 m-204 56 q0 10 10 10 m184 0 q10 0 10 -10 m-194 10 h10 m58 0 h10 m0 0 h106 m23 -120 h-3"/>
   <polygon points="253 17 261 13 261 21"/>
   <polygon points="253 17 245 13 245 21"/>
</svg>
