<?xml version="1.0" encoding="UTF-8"?>
<svg xmlns="http://www.w3.org/2000/svg" width="281" height="247">
   <defs>
      <style type="text/css">
    @namespace "http://www.w3.org/2000/svg";
    .line                 {fill: none; stroke: #332900; stroke-width: 1;}
    .bold-line            {stroke: #141000; shape-rendering: crispEdges; stroke-width: 2;}
    .thin-line            {stroke: #1F1800; shape-rendering: crispEdges}
    .filled               {fill: #332900; stroke: none;}
    text.terminal         {font-family: Verdana, Sans-serif;
                            font-size: 12px;
                            fill: #141000;
                            font-weight: bold;
                          }
    text.nonterminal      {font-family: Verdana, Sans-serif;
                            font-size: 12px;
                            fill: #1A1400;
                            font-weight: normal;
                          }
    text.regexp           {font-family: Verdana, Sans-serif;
                            font-size: 12px;
                            fill: #1F1800;
                            font-weight: normal;
                          }
    rect, circle, polygon {fill: #332900; stroke: #332900;}
    rect.terminal         {fill: #FFDB4D; stroke: #332900; stroke-width: 1;}
    rect.nonterminal      {fill: #FFEC9E; stroke: #332900; stroke-width: 1;}
    rect.text             {fill: none; stroke: none;}
    polygon.regexp        {fill: #FFF4C7; stroke: #332900; stroke-width: 1;}
  </style>
   </defs>
   <polygon points="9 183 1 179 1 187"/>
   <polygon points="17 183 9 179 9 187"/>
   <polygon points="51 185 58 169 104 169 111 185 104 201 58 201"/>
   <polygon points="49 183 56 167 102 167 109 183 102 199 56 199" class="regexp"/>
   <text class="regexp" x="64" y="187">[a-z]</text>
   <rect x="51" y="213" width="28" height="32" rx="10"/>
   <rect x="49"
         y="211"
         width="28"
         height="32"
         class="terminal"
         rx="10"/>
   <text class="terminal" x="59" y="231">_</text>
   <polygon points="171 151 178 135 224 135 231 151 224 167 178 167"/>
   <polygon points="169 149 176 133 222 133 229 149 222 165 176 165" class="regexp"/>
   <text class="regexp" x="184" y="153">[a-z]</text>
   <polygon points="171 107 178 91 226 91 233 107 226 123 178 123"/>
   <polygon points="169 105 176 89 224 89 231 105 224 121 176 121" class="regexp"/>
   <text class="regexp" x="184" y="109">[A-Z]</text>
   <polygon points="171 63 178 47 226 47 233 63 226 79 178 79"/>
   <polygon points="169 61 176 45 224 45 231 61 224 77 176 77" class="regexp"/>
   <text class="regexp" x="184" y="65">[0-9]</text>
   <rect x="171" y="3" width="28" height="32" rx="10"/>
   <rect x="169"
         y="1"
         width="28"
         height="32"
         class="terminal"
         rx="10"/>
   <text class="terminal" x="179" y="21">_</text>
   <path class="line"
         d="m17 183 h2 m20 0 h10 m60 0 h10 m-100 0 h20 m80 0 h20 m-120 0 q10 0 10 10 m100 0 q0 -10 10 -10 m-110 10 v24 m100 0 v-24 m-100 24 q0 10 10 10 m80 0 q10 0 10 -10 m-90 10 h10 m28 0 h10 m0 0 h32 m40 -44 h10 m0 0 h72 m-102 0 l20 0 m-1 0 q-9 0 -9 -10 l0 -14 q0 -10 10 -10 m82 34 l20 0 m-20 0 q10 0 10 -10 l0 -14 q0 -10 -10 -10 m-82 0 h10 m60 0 h10 m0 0 h2 m-92 10 l0 -44 q0 -10 10 -10 m92 54 l0 -44 q0 -10 -10 -10 m-82 0 h10 m62 0 h10 m-92 10 l0 -44 q0 -10 10 -10 m92 54 l0 -44 q0 -10 -10 -10 m-82 0 h10 m62 0 h10 m-92 10 l0 -44 q0 -10 10 -10 m92 54 l0 -44 q0 -10 -10 -10 m-82 0 h10 m28 0 h10 m0 0 h34 m23 166 h-3"/>
   <polygon points="271 183 279 179 279 187"/>
   <polygon points="271 183 263 179 263 187"/>
</svg>
